# Blender v2.78 (sub 0) OBJ File: ''
# www.blender.org
mtllib vote.mtl
o Cube_Cube.002
v 0.861898 0.229017 0.051725
v 0.592433 0.229017 0.051725
v 0.592433 -0.245853 0.051725
v 0.868165 -0.245853 0.051725
v 0.868165 -0.184580 0.051725
v 0.660670 -0.184580 0.051725
v 0.660670 -0.036966 0.051725
v 0.854935 -0.036966 0.051725
v 0.854935 0.024308 0.051725
v 0.660670 0.024308 0.051725
v 0.660670 0.167744 0.051725
v 0.861898 0.167744 0.051725
v 0.528374 0.229017 0.051725
v 0.131489 0.229017 0.051725
v 0.131489 0.167744 0.051725
v 0.295813 0.167744 0.051725
v 0.295813 -0.245853 0.051725
v 0.364050 -0.245853 0.051725
v 0.364050 0.167744 0.051725
v 0.528374 0.167744 0.051725
v -0.422063 -0.008418 0.051725
v -0.420041 -0.040273 0.051725
v -0.414072 -0.071197 0.051725
v -0.404296 -0.100840 0.051725
v -0.390859 -0.128851 0.051725
v -0.373901 -0.154879 0.051725
v -0.353565 -0.178574 0.051725
v -0.329995 -0.199586 0.051725
v -0.303332 -0.217563 0.051725
v -0.273720 -0.232156 0.051725
v -0.241301 -0.243013 0.051725
v -0.206218 -0.249785 0.051725
v -0.168613 -0.252120 0.051725
v -0.129769 -0.249772 0.051725
v -0.093733 -0.242965 0.051725
v -0.060612 -0.232058 0.051725
v -0.030515 -0.217408 0.051725
v -0.003552 -0.199374 0.051725
v 0.020169 -0.178313 0.051725
v 0.040539 -0.154583 0.051725
v 0.057450 -0.128541 0.051725
v 0.070792 -0.100546 0.051725
v 0.080456 -0.070955 0.051725
v 0.086335 -0.040127 0.051725
v 0.088319 -0.008418 0.051725
v 0.086282 0.024168 0.051725
v 0.080269 0.055570 0.051725
v 0.070422 0.085472 0.051725
v 0.056882 0.113562 0.051725
v 0.039794 0.139524 0.051725
v 0.019299 0.163044 0.051725
v -0.004460 0.183807 0.051725
v -0.031340 0.201501 0.051725
v -0.061199 0.215809 0.051725
v -0.093894 0.226419 0.051725
v -0.129282 0.233015 0.051725
v -0.167220 0.235284 0.051725
v -0.204560 0.233002 0.051725
v -0.239528 0.226371 0.051725
v -0.271958 0.215712 0.051725
v -0.301682 0.201346 0.051725
v -0.328534 0.183596 0.051725
v -0.352347 0.162783 0.051725
v -0.372954 0.139227 0.051725
v -0.390188 0.113252 0.051725
v -0.403883 0.085179 0.051725
v -0.413872 0.055328 0.051725
v -0.419987 0.024022 0.051725
v -0.351737 -0.008418 0.051725
v -0.350128 0.017084 0.051725
v -0.345419 0.041257 0.051725
v -0.337790 0.063931 0.051725
v -0.327419 0.084936 0.051725
v -0.314485 0.104105 0.051725
v -0.299167 0.121266 0.051725
v -0.281645 0.136252 0.051725
v -0.262096 0.148892 0.051725
v -0.240701 0.159018 0.051725
v -0.217637 0.166460 0.051725
v -0.193084 0.171050 0.051725
v -0.167220 0.172618 0.051725
v -0.141197 0.171050 0.051725
v -0.116510 0.166461 0.051725
v -0.093337 0.159018 0.051725
v -0.071854 0.148892 0.051725
v -0.052238 0.136252 0.051725
v -0.034664 0.121266 0.051725
v -0.019310 0.104105 0.051725
v -0.006351 0.084936 0.051725
v 0.004035 0.063931 0.051725
v 0.011672 0.041257 0.051725
v 0.016383 0.017084 0.051725
v 0.017993 -0.008418 0.051725
v 0.016383 -0.033774 0.051725
v 0.011672 -0.057851 0.051725
v 0.004035 -0.080473 0.051725
v -0.006351 -0.101463 0.051725
v -0.019310 -0.120645 0.051725
v -0.034664 -0.137841 0.051725
v -0.052238 -0.152876 0.051725
v -0.071854 -0.165573 0.051725
v -0.093337 -0.175756 0.051725
v -0.116510 -0.183248 0.051725
v -0.141197 -0.187873 0.051725
v -0.167220 -0.189454 0.051725
v -0.193084 -0.187873 0.051725
v -0.217637 -0.183248 0.051725
v -0.240701 -0.175756 0.051725
v -0.262096 -0.165573 0.051725
v -0.281645 -0.152876 0.051725
v -0.299168 -0.137841 0.051725
v -0.314485 -0.120645 0.051725
v -0.327419 -0.101463 0.051725
v -0.337790 -0.080473 0.051725
v -0.345419 -0.057851 0.051725
v -0.350128 -0.033774 0.051725
v -0.453396 0.229017 0.051725
v -0.520936 0.229017 0.051725
v -0.662980 -0.104506 0.051725
v -0.805719 0.229017 0.051725
v -0.873956 0.229017 0.051725
v -0.668550 -0.250031 0.051725
v -0.654624 -0.250031 0.051725
v 0.086335 -0.040127 0.143452
v 0.011672 -0.057851 0.143452
v 0.080269 0.055570 0.143452
v -0.006351 0.084936 0.143452
v -0.004460 0.183807 0.143452
v -0.031340 0.201501 0.143452
v -0.390859 -0.128851 0.143452
v -0.373901 -0.154879 0.143452
v -0.351737 -0.008418 0.143452
v -0.350128 -0.033774 0.143452
v -0.422063 -0.008418 0.143452
v -0.350128 0.017084 0.143452
v 0.086282 0.024168 0.143452
v 0.011672 0.041257 0.143452
v -0.327419 0.084936 0.143452
v -0.314485 0.104105 0.143452
v -0.303332 -0.217563 0.143452
v -0.273720 -0.232156 0.143452
v -0.420041 -0.040273 0.143452
v -0.372954 0.139227 0.143452
v -0.240701 0.159018 0.143452
v -0.262096 0.148892 0.143452
v -0.271958 0.215712 0.143452
v -0.301682 0.201346 0.143452
v -0.329995 -0.199586 0.143452
v -0.167220 -0.189454 0.143452
v -0.390188 0.113252 0.143452
v -0.206218 -0.249785 0.143452
v -0.129769 -0.249772 0.143452
v -0.299168 -0.137841 0.143452
v 0.057450 -0.128541 0.143452
v 0.070792 -0.100546 0.143452
v 0.088319 -0.008418 0.143452
v 0.017993 -0.008418 0.143452
v -0.093337 0.159018 0.143452
v -0.071854 0.148892 0.143452
v -0.414072 -0.071197 0.143452
v -0.337790 -0.080473 0.143452
v -0.520936 0.229017 0.143452
v -0.662980 -0.104506 0.143452
v -0.262096 -0.165573 0.143452
v -0.352347 0.162783 0.143452
v -0.193084 0.171050 0.143452
v 0.019299 0.163044 0.143452
v -0.328534 0.183596 0.143452
v 0.592433 -0.245853 0.143452
v 0.660670 0.024308 0.143452
v -0.019310 -0.120645 0.143452
v -0.034664 -0.137841 0.143452
v 0.854935 0.024308 0.143452
v 0.040539 -0.154583 0.143452
v -0.052238 -0.152876 0.143452
v 0.660670 -0.036966 0.143452
v -0.060612 -0.232058 0.143452
v -0.093894 0.226419 0.143452
v -0.204560 0.233002 0.143452
v -0.353565 -0.178574 0.143452
v -0.217637 -0.183248 0.143452
v 0.528374 0.229017 0.143452
v 0.131489 0.229017 0.143452
v -0.030515 -0.217408 0.143452
v -0.003552 -0.199374 0.143452
v -0.167220 0.172618 0.143452
v 0.056882 0.113562 0.143452
v -0.019310 0.104105 0.143452
v -0.061199 0.215809 0.143452
v -0.404296 -0.100840 0.143452
v -0.403883 0.085179 0.143452
v 0.039794 0.139524 0.143452
v -0.052238 0.136252 0.143452
v 0.868165 -0.184580 0.143452
v 0.660670 -0.184580 0.143452
v -0.327419 -0.101463 0.143452
v 0.020169 -0.178313 0.143452
v -0.071854 -0.165573 0.143452
v -0.345419 -0.057851 0.143452
v -0.168613 -0.252120 0.143452
v 0.016383 0.017084 0.143452
v 0.295813 -0.245853 0.143452
v 0.364050 0.167744 0.143452
v -0.314485 -0.120645 0.143452
v -0.240701 -0.175756 0.143452
v -0.668550 -0.250031 0.143452
v -0.654624 -0.250031 0.143452
v 0.016383 -0.033774 0.143452
v 0.861898 0.229017 0.143452
v 0.592433 0.229017 0.143452
v -0.116510 -0.183248 0.143452
v -0.141197 -0.187873 0.143452
v -0.337790 0.063931 0.143452
v 0.080456 -0.070955 0.143452
v 0.004035 -0.080473 0.143452
v -0.217637 0.166460 0.143452
v -0.299167 0.121266 0.143452
v -0.281645 0.136252 0.143452
v -0.281645 -0.152876 0.143452
v -0.413872 0.055328 0.143452
v -0.345419 0.041257 0.143452
v -0.034664 0.121266 0.143452
v -0.116510 0.166461 0.143452
v 0.660670 0.167744 0.143452
v -0.167220 0.235284 0.143452
v -0.805719 0.229017 0.143452
v 0.131489 0.167744 0.143452
v -0.193084 -0.187873 0.143452
v -0.093733 -0.242965 0.143452
v 0.295813 0.167744 0.143452
v -0.239528 0.226371 0.143452
v 0.528374 0.167744 0.143452
v 0.854935 -0.036966 0.143452
v 0.868165 -0.245853 0.143452
v -0.419987 0.024022 0.143452
v -0.453396 0.229017 0.143452
v -0.006351 -0.101463 0.143452
v 0.070422 0.085472 0.143452
v -0.241301 -0.243013 0.143452
v 0.861898 0.167744 0.143452
v -0.129282 0.233015 0.143452
v -0.141197 0.171050 0.143452
v 0.004035 0.063931 0.143452
v 0.364050 -0.245853 0.143452
v -0.873956 0.229017 0.143452
v -0.093337 -0.175756 0.143452
v -1.000000 -0.435185 0.164971
v -1.000000 0.435185 0.164971
v -1.000000 -0.435185 -0.164971
v -1.000000 0.435185 -0.164971
v 1.000000 -0.435185 0.164971
v 1.000000 0.435185 0.164971
v 1.000000 -0.435185 -0.164971
v 1.000000 0.435185 -0.164971
v -0.946366 -0.379789 0.164971
v -0.946366 0.379789 0.164971
v 0.946366 0.379789 0.164971
v 0.946366 -0.379789 0.164971
v -0.946366 -0.379789 0.035470
v -0.946366 0.379789 0.035470
v 0.946366 0.379789 0.035470
v 0.946366 -0.379789 0.035470
vn -1.0000 0.0000 0.0000
vn 0.0000 0.0000 -1.0000
vn 1.0000 0.0000 0.0000
vn 0.0000 0.0000 1.0000
vn 0.0000 -1.0000 0.0000
vn 0.0000 1.0000 0.0000
vn -0.1841 0.9829 0.0000
vn -0.9483 0.3173 0.0000
vn 0.8291 0.5591 0.0000
vn 0.6499 -0.7600 0.0000
vn 0.8967 -0.4427 0.0000
vn -0.6654 -0.7465 0.0000
vn 0.8965 0.4430 0.0000
vn 0.4297 0.9030 0.0000
vn -0.8964 -0.4432 0.0000
vn 0.9506 -0.3105 0.0000
vn -0.9477 -0.3192 0.0000
vn 0.9027 -0.4302 0.0000
vn -0.9980 0.0639 0.0000
vn 0.0610 0.9981 0.0000
vn 0.6512 0.7589 0.0000
vn -0.4264 -0.9046 0.0000
vn 0.9220 -0.3873 0.0000
vn 0.8353 0.5498 0.0000
vn -0.9200 0.3918 0.0000
vn -0.9980 0.0634 0.0000
vn 0.5430 -0.8397 0.0000
vn 0.1851 0.9827 0.0000
vn 0.9981 0.0624 0.0000
vn -0.0620 -0.9981 0.0000
vn 0.5447 0.8386 0.0000
vn -0.9191 -0.3941 0.0000
vn 0.9980 -0.0630 0.0000
vn 0.7539 0.6570 0.0000
vn 0.0597 0.9982 0.0000
vn 0.9822 0.1881 0.0000
vn -0.7459 0.6660 0.0000
vn -0.5434 0.8395 0.0000
vn 0.1832 0.9831 0.0000
vn 0.9823 -0.1873 0.0000
vn -0.3076 0.9515 0.0000
vn -0.7453 -0.6668 0.0000
vn -0.7589 -0.6513 0.0000
vn -0.6489 -0.7609 0.0000
vn -0.3058 -0.9521 0.0000
vn 0.3071 -0.9517 0.0000
vn 0.6581 0.7530 0.0000
vn -0.8333 0.5529 0.0000
vn 0.1837 -0.9830 0.0000
vn -0.0610 0.9981 0.0000
vn -0.3176 -0.9482 0.0000
vn -0.1895 -0.9819 0.0000
vn 0.9193 0.3935 0.0000
vn -0.4283 0.9036 0.0000
vn 0.9980 -0.0624 0.0000
vn 0.5560 -0.8312 0.0000
vn 0.6639 -0.7478 -0.0000
vn 0.7460 -0.6659 0.0000
vn -0.1863 0.9825 0.0000
vn -0.5514 0.8342 0.0000
vn 0.0605 -0.9982 0.0000
vn 0.9816 -0.1912 0.0000
vn -0.3123 0.9500 0.0000
vn -0.9016 -0.4325 0.0000
vn 0.9478 -0.3189 0.0000
vn -0.6501 0.7599 0.0000
vn -0.8988 0.4384 0.0000
vn -0.6581 0.7529 0.0000
vn -0.5417 -0.8406 0.0000
vn -0.8963 0.4435 0.0000
vn -0.9815 -0.1913 0.0000
vn -0.8286 0.5598 0.0000
vn -0.8284 -0.5601 0.0000
vn 0.9498 0.3128 0.0000
vn -0.9497 -0.3132 0.0000
vn 0.9476 0.3196 0.0000
vn -0.9814 0.1917 0.0000
vn 0.9008 0.4342 0.0000
vn 0.1856 -0.9826 0.0000
vn 0.0603 -0.9982 0.0000
vn 0.5498 0.8353 0.0000
vn -0.9980 -0.0630 0.0000
vn -0.9819 -0.1895 0.0000
vn -0.8379 -0.5459 0.0000
vn 0.9980 0.0633 0.0000
vn 0.7467 0.6651 0.0000
vn -0.7526 0.6584 0.0000
vn 0.7588 -0.6513 0.0000
vn 0.8387 -0.5446 0.0000
vn 0.4322 0.9018 0.0000
vn -0.1828 -0.9832 0.0000
vn 0.8289 -0.5593 0.0000
vn -0.9475 0.3199 0.0000
vn -0.0601 -0.9982 0.0000
vn -0.5590 -0.8291 0.0000
vn 0.3128 -0.9498 0.0000
vn -0.4420 -0.8970 0.0000
vn 0.3087 0.9512 0.0000
vn 0.3090 0.9511 0.0000
vn -0.9814 0.1920 0.0000
vn -0.9980 -0.0633 0.0000
vn -0.0606 0.9982 0.0000
vn 0.4278 -0.9039 0.0000
vn -0.4351 0.9004 0.0000
vn 0.9814 0.1919 0.0000
vn 0.4377 -0.8991 0.0000
vn 0.9815 -0.1912 0.0000
usemtl Material_001
s off
f 248//1 249//1 247//1
f 250//2 253//2 249//2
f 254//3 251//3 253//3
f 248//4 257//4 252//4
f 253//5 247//5 249//5
f 250//6 252//6 254//6
f 256//5 261//5 257//5
f 252//4 258//4 251//4
f 247//4 256//4 248//4
f 251//4 255//4 247//4
f 261//4 259//4 262//4
f 257//1 262//1 258//1
f 258//6 259//6 255//6
f 255//3 260//3 256//3
f 248//1 250//1 249//1
f 250//2 254//2 253//2
f 254//3 252//3 251//3
f 248//4 256//4 257//4
f 253//5 251//5 247//5
f 250//6 248//6 252//6
f 256//5 260//5 261//5
f 252//4 257//4 258//4
f 247//4 255//4 256//4
f 251//4 258//4 255//4
f 261//4 260//4 259//4
f 257//1 261//1 262//1
f 258//6 262//6 259//6
f 255//3 259//3 260//3
usemtl Material_002
f 3//2 2//2 11//2
f 11//2 2//2 1//2
f 11//2 1//2 12//2
f 3//2 11//2 10//2
f 3//2 10//2 7//2
f 7//2 10//2 9//2
f 7//2 9//2 8//2
f 3//2 7//2 6//2
f 3//2 6//2 5//2
f 3//2 5//2 4//2
f 15//2 14//2 13//2
f 15//2 13//2 20//2
f 16//4 15//4 20//4
f 17//2 16//2 19//2
f 19//4 16//4 20//4
f 17//2 19//2 18//2
f 58//2 57//2 56//2
f 58//2 56//2 55//2
f 59//2 58//2 55//2
f 59//2 55//2 54//2
f 60//2 59//2 54//2
f 60//2 54//2 53//2
f 61//2 60//2 53//2
f 61//2 53//2 52//2
f 62//2 61//2 52//2
f 62//2 52//2 51//2
f 63//2 62//2 81//2
f 81//2 62//2 51//2
f 63//2 81//2 80//2
f 82//2 81//2 51//2
f 83//2 82//2 51//2
f 63//2 80//2 79//2
f 84//2 83//2 51//2
f 63//2 79//2 78//2
f 84//2 51//2 50//2
f 64//2 63//2 78//2
f 85//2 84//2 50//2
f 64//2 78//2 77//2
f 86//2 85//2 50//2
f 64//2 77//2 76//2
f 86//2 50//2 49//2
f 65//2 64//2 76//2
f 87//2 86//2 49//2
f 65//2 76//2 75//2
f 88//2 87//2 49//2
f 65//2 75//2 74//2
f 88//2 49//2 48//2
f 66//2 65//2 74//2
f 89//2 88//2 48//2
f 66//2 74//2 73//2
f 89//2 48//2 47//2
f 67//2 66//2 73//2
f 90//2 89//2 47//2
f 67//2 73//2 72//2
f 91//2 90//2 47//2
f 67//2 72//2 71//2
f 91//2 47//2 46//2
f 68//2 67//2 71//2
f 92//2 91//2 46//2
f 68//2 71//2 70//2
f 92//2 46//2 45//2
f 21//2 68//2 70//2
f 93//2 92//2 45//2
f 21//2 70//2 69//2
f 22//2 21//2 69//2
f 22//2 69//2 116//2
f 94//2 93//2 45//2
f 94//2 45//2 44//2
f 22//2 116//2 115//2
f 95//2 94//2 44//2
f 95//2 44//2 43//2
f 23//2 22//2 115//2
f 23//2 115//2 114//2
f 96//2 95//2 43//2
f 96//2 43//2 42//2
f 24//2 23//2 114//2
f 97//2 96//2 42//2
f 24//2 114//2 113//2
f 97//2 42//2 41//2
f 25//2 24//2 113//2
f 98//2 97//2 41//2
f 25//2 113//2 112//2
f 99//2 98//2 41//2
f 25//2 112//2 111//2
f 99//2 41//2 40//2
f 26//2 25//2 111//2
f 100//2 99//2 40//2
f 26//2 111//2 110//2
f 101//2 100//2 40//2
f 26//2 110//2 109//2
f 101//2 40//2 39//2
f 27//2 26//2 109//2
f 102//2 101//2 39//2
f 27//2 109//2 108//2
f 103//2 102//2 39//2
f 27//2 108//2 107//2
f 103//2 39//2 38//2
f 28//2 27//2 107//2
f 104//2 103//2 38//2
f 28//2 107//2 106//2
f 105//2 104//2 38//2
f 28//2 106//2 105//2
f 28//2 105//2 38//2
f 28//2 38//2 37//2
f 29//2 28//2 37//2
f 29//2 37//2 36//2
f 30//2 29//2 36//2
f 30//2 36//2 35//2
f 31//2 30//2 35//2
f 31//2 35//2 34//2
f 32//2 31//2 34//2
f 32//2 34//2 33//2
f 122//2 121//2 120//2
f 122//2 120//2 119//2
f 119//2 118//2 117//2
f 119//2 117//2 123//2
f 122//2 119//2 123//2
f 169//4 224//4 210//4
f 224//4 209//4 210//4
f 224//4 240//4 209//4
f 169//4 170//4 224//4
f 169//4 176//4 170//4
f 176//4 173//4 170//4
f 176//4 233//4 173//4
f 169//4 195//4 176//4
f 169//4 194//4 195//4
f 169//4 234//4 194//4
f 227//4 182//4 183//4
f 227//4 232//4 182//4
f 230//4 232//4 227//4
f 202//4 203//4 230//4
f 203//4 232//4 230//4
f 202//4 244//4 203//4
f 179//4 241//4 225//4
f 179//4 178//4 241//4
f 231//4 178//4 179//4
f 231//4 189//4 178//4
f 146//4 189//4 231//4
f 146//4 129//4 189//4
f 147//4 129//4 146//4
f 147//4 128//4 129//4
f 168//4 128//4 147//4
f 168//4 167//4 128//4
f 165//4 186//4 168//4
f 186//4 167//4 168//4
f 165//4 166//4 186//4
f 242//4 167//4 186//4
f 223//4 167//4 242//4
f 165//4 216//4 166//4
f 158//4 167//4 223//4
f 165//4 144//4 216//4
f 158//4 192//4 167//4
f 143//4 144//4 165//4
f 159//4 192//4 158//4
f 143//4 145//4 144//4
f 193//4 192//4 159//4
f 143//4 218//4 145//4
f 193//4 187//4 192//4
f 150//4 218//4 143//4
f 222//4 187//4 193//4
f 150//4 217//4 218//4
f 188//4 187//4 222//4
f 150//4 139//4 217//4
f 188//4 238//4 187//4
f 191//4 139//4 150//4
f 127//4 238//4 188//4
f 191//4 138//4 139//4
f 127//4 126//4 238//4
f 220//4 138//4 191//4
f 243//4 126//4 127//4
f 220//4 213//4 138//4
f 137//4 126//4 243//4
f 220//4 221//4 213//4
f 137//4 136//4 126//4
f 235//4 221//4 220//4
f 201//4 136//4 137//4
f 235//4 135//4 221//4
f 201//4 156//4 136//4
f 134//4 135//4 235//4
f 157//4 156//4 201//4
f 134//4 132//4 135//4
f 142//4 132//4 134//4
f 142//4 133//4 132//4
f 208//4 156//4 157//4
f 208//4 124//4 156//4
f 142//4 199//4 133//4
f 125//4 124//4 208//4
f 125//4 214//4 124//4
f 160//4 199//4 142//4
f 160//4 161//4 199//4
f 215//4 214//4 125//4
f 215//4 155//4 214//4
f 190//4 161//4 160//4
f 237//4 155//4 215//4
f 190//4 196//4 161//4
f 237//4 154//4 155//4
f 130//4 196//4 190//4
f 171//4 154//4 237//4
f 130//4 204//4 196//4
f 172//4 154//4 171//4
f 130//4 153//4 204//4
f 172//4 174//4 154//4
f 131//4 153//4 130//4
f 175//4 174//4 172//4
f 131//4 219//4 153//4
f 198//4 174//4 175//4
f 131//4 164//4 219//4
f 198//4 197//4 174//4
f 180//4 164//4 131//4
f 246//4 197//4 198//4
f 180//4 205//4 164//4
f 211//4 197//4 246//4
f 180//4 181//4 205//4
f 211//4 185//4 197//4
f 148//4 181//4 180//4
f 212//4 185//4 211//4
f 148//4 228//4 181//4
f 149//4 185//4 212//4
f 148//4 149//4 228//4
f 148//4 185//4 149//4
f 148//4 184//4 185//4
f 140//4 184//4 148//4
f 140//4 177//4 184//4
f 141//4 177//4 140//4
f 141//4 229//4 177//4
f 239//4 229//4 141//4
f 239//4 152//4 229//4
f 151//4 152//4 239//4
f 151//4 200//4 152//4
f 206//4 226//4 245//4
f 206//4 163//4 226//4
f 163//4 236//4 162//4
f 163//4 207//4 236//4
f 206//4 207//4 163//4
f 104//7 211//7 103//7
f 5//3 234//3 4//3
f 66//8 220//8 191//8
f 113//9 204//9 112//9
f 76//10 217//10 75//10
f 73//11 213//11 72//11
f 8//5 176//5 7//5
f 28//12 180//12 27//12
f 114//13 196//13 113//13
f 109//14 205//14 108//14
f 89//15 243//15 127//15
f 43//16 155//16 42//16
f 91//17 243//17 90//17
f 42//18 154//18 41//18
f 21//19 235//19 68//19
f 106//20 149//20 105//20
f 111//21 219//21 110//21
f 85//22 158//22 84//22
f 19//3 244//3 18//3
f 117//23 207//23 123//23
f 50//24 187//24 49//24
f 118//25 163//25 162//25
f 93//26 208//26 157//26
f 77//27 218//27 76//27
f 4//5 169//5 3//5
f 107//28 228//28 106//28
f 46//29 156//29 45//29
f 18//5 202//5 17//5
f 33//30 151//30 32//30
f 110//31 164//31 109//31
f 121//32 206//32 245//32
f 121//6 226//6 120//6
f 70//33 132//33 69//33
f 3//1 210//1 2//1
f 51//34 192//34 50//34
f 57//35 241//35 56//35
f 47//36 136//36 46//36
f 99//37 171//37 98//37
f 101//38 175//38 100//38
f 56//39 178//39 55//39
f 10//6 173//6 9//6
f 44//40 214//40 43//40
f 103//41 246//41 102//41
f 88//42 222//42 87//42
f 27//43 131//43 26//43
f 87//44 193//44 86//44
f 84//45 223//45 83//45
f 79//46 144//46 78//46
f 52//47 167//47 51//47
f 65//48 143//48 64//48
f 80//49 216//49 79//49
f 58//50 225//50 57//50
f 31//51 141//51 30//51
f 32//52 239//52 31//52
f 120//53 163//53 119//53
f 102//54 198//54 101//54
f 45//55 124//55 44//55
f 14//6 182//6 13//6
f 37//56 185//56 184//56
f 38//57 197//57 185//57
f 75//58 139//58 74//58
f 58//59 231//59 179//59
f 62//60 147//60 61//60
f 81//61 166//61 80//61
f 12//5 224//5 11//5
f 71//62 135//62 70//62
f 60//63 231//63 59//63
f 24//64 130//64 190//64
f 72//65 221//65 71//65
f 100//66 172//66 99//66
f 66//67 150//67 65//67
f 63//68 168//68 62//68
f 86//69 159//69 85//69
f 97//70 215//70 96//70
f 6//6 194//6 5//6
f 92//71 137//71 91//71
f 98//72 237//72 97//72
f 89//73 188//73 88//73
f 48//74 126//74 47//74
f 17//1 230//1 16//1
f 11//3 170//3 10//3
f 24//75 160//75 23//75
f 115//76 161//76 114//76
f 68//77 220//77 67//77
f 49//78 238//78 48//78
f 1//3 240//3 12//3
f 35//79 152//79 34//79
f 34//80 200//80 33//80
f 53//81 128//81 52//81
f 118//6 236//6 117//6
f 93//82 201//82 92//82
f 23//83 142//83 22//83
f 26//84 130//84 25//84
f 20//5 203//5 19//5
f 15//1 183//1 14//1
f 16//5 227//5 15//5
f 69//85 133//85 116//85
f 112//86 153//86 111//86
f 64//87 165//87 63//87
f 40//88 197//88 39//88
f 9//3 233//3 8//3
f 40//89 154//89 174//89
f 54//90 129//90 53//90
f 83//91 242//91 82//91
f 74//92 138//92 73//92
f 96//93 125//93 95//93
f 82//94 186//94 81//94
f 29//95 148//95 28//95
f 36//96 229//96 35//96
f 30//97 140//97 29//97
f 55//98 189//98 54//98
f 108//99 181//99 107//99
f 95//100 208//100 94//100
f 21//101 142//101 134//101
f 123//5 206//5 122//5
f 105//102 212//102 104//102
f 78//103 145//103 77//103
f 13//3 232//3 20//3
f 7//3 195//3 6//3
f 2//6 209//6 1//6
f 61//104 146//104 60//104
f 116//105 199//105 115//105
f 36//106 184//106 177//106
f 104//7 212//7 211//7
f 5//3 194//3 234//3
f 66//8 67//8 220//8
f 113//9 196//9 204//9
f 76//10 218//10 217//10
f 73//11 138//11 213//11
f 8//5 233//5 176//5
f 28//12 148//12 180//12
f 114//13 161//13 196//13
f 109//14 164//14 205//14
f 89//15 90//15 243//15
f 43//16 214//16 155//16
f 91//17 137//17 243//17
f 42//18 155//18 154//18
f 21//19 134//19 235//19
f 106//20 228//20 149//20
f 111//21 153//21 219//21
f 85//22 159//22 158//22
f 19//3 203//3 244//3
f 117//23 236//23 207//23
f 50//24 192//24 187//24
f 118//25 119//25 163//25
f 93//26 94//26 208//26
f 77//27 145//27 218//27
f 4//5 234//5 169//5
f 107//28 181//28 228//28
f 46//29 136//29 156//29
f 18//5 244//5 202//5
f 33//30 200//30 151//30
f 110//31 219//31 164//31
f 121//32 122//32 206//32
f 121//6 245//6 226//6
f 70//33 135//33 132//33
f 3//1 169//1 210//1
f 51//34 167//34 192//34
f 57//35 225//35 241//35
f 47//36 126//36 136//36
f 99//37 172//37 171//37
f 101//38 198//38 175//38
f 56//39 241//39 178//39
f 10//6 170//6 173//6
f 44//40 124//40 214//40
f 103//41 211//41 246//41
f 88//42 188//42 222//42
f 27//43 180//43 131//43
f 87//44 222//44 193//44
f 84//45 158//45 223//45
f 79//46 216//46 144//46
f 52//47 128//47 167//47
f 65//48 150//48 143//48
f 80//49 166//49 216//49
f 58//50 179//50 225//50
f 31//51 239//51 141//51
f 32//52 151//52 239//52
f 120//53 226//53 163//53
f 102//54 246//54 198//54
f 45//55 156//55 124//55
f 14//6 183//6 182//6
f 37//56 38//56 185//56
f 38//57 39//57 197//57
f 75//58 217//58 139//58
f 58//59 59//59 231//59
f 62//60 168//60 147//60
f 81//61 186//61 166//61
f 12//5 240//5 224//5
f 71//107 221//107 135//107
f 60//63 146//63 231//63
f 24//64 25//64 130//64
f 72//65 213//65 221//65
f 100//66 175//66 172//66
f 66//67 191//67 150//67
f 63//68 165//68 168//68
f 86//69 193//69 159//69
f 97//70 237//70 215//70
f 6//6 195//6 194//6
f 92//71 201//71 137//71
f 98//72 171//72 237//72
f 89//73 127//73 188//73
f 48//74 238//74 126//74
f 17//1 202//1 230//1
f 11//3 224//3 170//3
f 24//75 190//75 160//75
f 115//76 199//76 161//76
f 68//77 235//77 220//77
f 49//78 187//78 238//78
f 1//3 209//3 240//3
f 35//79 229//79 152//79
f 34//80 152//80 200//80
f 53//81 129//81 128//81
f 118//6 162//6 236//6
f 93//82 157//82 201//82
f 23//83 160//83 142//83
f 26//84 131//84 130//84
f 20//5 232//5 203//5
f 15//1 227//1 183//1
f 16//5 230//5 227//5
f 69//85 132//85 133//85
f 112//86 204//86 153//86
f 64//87 143//87 165//87
f 40//88 174//88 197//88
f 9//3 173//3 233//3
f 40//89 41//89 154//89
f 54//90 189//90 129//90
f 83//91 223//91 242//91
f 74//92 139//92 138//92
f 96//93 215//93 125//93
f 82//94 242//94 186//94
f 29//95 140//95 148//95
f 36//96 177//96 229//96
f 30//97 141//97 140//97
f 55//98 178//98 189//98
f 108//99 205//99 181//99
f 95//100 125//100 208//100
f 21//101 22//101 142//101
f 123//5 207//5 206//5
f 105//102 149//102 212//102
f 78//103 144//103 145//103
f 13//3 182//3 232//3
f 7//3 176//3 195//3
f 2//6 210//6 209//6
f 61//104 147//104 146//104
f 116//105 133//105 199//105
f 36//106 37//106 184//106
